PathFileType	4	(X/Y/Z)	OpenSim_Sub02_CSStiffKnee_Accel.trc
DataRate	CameraRate	NumFrames	NumMarkers	Units	OrigDataRate	OrigDataStartFrame	OrigNumFrames
100	100	42	8	m	100	1	6891
Frame#	Time	torso_imu_offset_imu	pelvis_imu_offset_imu	tibia_r_imu_offset_imu	femur_r_imu_offset_imu	tibia_l_imu_offset_imu	femur_l_imu_offset_imu	toes_r_imu_offset_imu	toes_l_imu_offset_imu
				X1	Y1	Z1	X2	Y2	Z2	X3	Y3	Z3	X4	Y4	Z4	X5	Y5	Z5	X6	Y6	Z6	X7	Y7	Z7	X8		Y8	Z8	

1	0	8.69732817	-0.03361498	7.15370386	9.56050531	-0.47122403	2.62570413	9.54213728	1.97362123	2.49697781	9.74580904	-0.84166138	1.23448000	9.59410308	-1.00920891	1.85732024	9.76198271	-0.64869772	-0.68705319	4.32251988	0.79195591	8.98491635	3.60373668	0.57252831	11.90516819
2	0.01000000	8.71553260	0.01720378	7.18435505	9.56058051	-0.47910702	2.61926744	9.48875491	1.99673495	2.47201189	9.73595064	-0.83011389	1.21394990	9.65171729	-1.00374841	1.79087902	9.74913459	-0.65980743	-0.70295763	4.34148387	0.77951596	8.96871161	3.57327794	0.54483756	11.86523568
3	0.02000000	8.69791923	-0.02681868	7.17276674	9.58284237	-0.42860092	2.59948674	9.51156281	1.97592225	2.49767312	9.71877064	-0.85607896	1.24467441	9.62925570	-0.97939157	1.79216737	9.75949414	-0.62707534	-0.70726855	4.30019811	0.78680473	8.95341827	3.59387374	0.57963208	11.85066768
4	0.03000000	8.70925841	0.01550593	7.21062943	9.60002935	-0.46312875	2.59375640	9.52920488	1.98892598	2.47820957	9.72545271	-0.85179929	1.24684320	9.60557560	-1.02121287	1.85023117	9.78285482	-0.64026148	-0.65286895	4.33532863	0.82002176	9.00220528	3.56175016	0.56752050	11.86269176
5	0.04000000	8.72563601	-0.02571872	7.22320399	9.58345371	-0.48299352	2.61216271	9.48048037	1.96852192	2.51053889	9.74391292	-0.84174772	1.26580400	9.60825643	-1.01632455	1.83719188	9.76159133	-0.64574380	-0.68995677	4.37227078	0.80255770	8.95808067	3.56946208	0.55170652	11.83752011
6	0.05000000	8.71368965	0.00049365	7.23055242	9.58126809	-0.46204890	2.62245596	9.50943218	1.98973609	2.47957923	9.73877417	-0.81766170	1.22750635	9.61482885	-1.02842749	1.79751035	9.77603136	-0.66004920	-0.64916216	4.36297977	0.80524143	8.97000680	3.56788308	0.58317334	11.83364641
7	0.06000000	8.73424493	-0.01072296	7.22768124	9.56725993	-0.46973617	2.63509049	9.54645336	2.01697504	2.56103758	9.74988171	-0.78127853	1.20508494	9.61892861	-1.04608782	1.80237876	9.78312906	-0.67807226	-0.63256471	4.32716560	0.79793099	8.99215604	3.58882639	0.56662330	11.85444106
8	0.07000000	8.70906494	-0.04909712	7.16075688	9.58068804	-0.45791368	2.58703021	9.56597049	1.97378615	2.49841155	9.75984515	-0.80208226	1.23630337	9.61701813	-1.03864873	1.83953030	9.78002407	-0.68310919	-0.66235042	4.31590181	0.79547175	8.98116776	3.57816767	0.55989876	11.86591391
9	0.08000000	8.73054962	-0.03275519	7.27089790	9.59100024	-0.46073794	2.61396973	9.49761579	1.96468794	2.50989550	9.77453112	-0.79084491	1.22992772	9.62702370	-1.02076635	1.81997318	9.77000761	-0.66388673	-0.65623543	4.33277275	0.81644729	8.97005606	3.59382677	0.57728399	11.87422677
10	0.09000000	8.69646382	0.00904136	7.29213432	9.60642993	-0.43499215	2.60357276	9.49187632	2.01676478	2.53614967	9.74597908	-0.77573641	1.23267632	9.59952836	-1.01307783	1.82487108	9.76009197	-0.71023617	-0.64138137	4.31165789	0.80030179	8.95997897	3.57329775	0.55481379	11.85418407
11	0.10000000	8.74242750	0.03678910	7.18195856	9.57752352	-0.43692266	2.59123282	9.51917345	2.04022272	2.49783251	9.74165849	-0.77594825	1.25269547	9.60141636	-1.05310559	1.85918512	9.76301362	-0.64464383	-0.63609171	4.32378671	0.79196003	8.96066647	3.58260488	0.58148723	11.82633713
12	0.11000000	8.79152572	0.01181256	7.20190787	9.59099523	-0.44072574	2.61190399	9.49280832	2.01484470	2.49615310	9.73000064	-0.78385576	1.22138507	9.62860066	-1.02002908	1.87531829	9.75277048	-0.62577926	-0.64359836	4.32484841	0.81930217	9.00511367	3.56435137	0.57149823	11.89685137
13	0.12000000	8.77809048	-0.05167190	7.18836037	9.61618838	-0.44446059	2.59852967	9.45573647	2.01646341	2.53595290	9.76418681	-0.74777646	1.20316693	9.63711774	-1.02341086	1.87910800	9.75899677	-0.64161400	-0.66675577	4.33322927	0.79312436	8.99373273	3.59559942	0.54580999	11.87700937
14	0.13000000	8.67209656	-0.08752381	7.26237606	9.63904632	-0.46051552	2.59158833	9.53792587	2.00168455	2.49816901	9.73152602	-0.74418168	1.21432823	9.61999432	-1.00869262	1.84334851	9.78584719	-0.63467441	-0.65206203	4.33687893	0.79260785	9.00842735	3.57852835	0.57334350	11.85745685
15	0.14000000	8.68719009	-0.03619084	7.22938594	9.63833118	-0.44543057	2.62456288	9.49360444	2.01849017	2.49053223	9.75661099	-0.79683056	1.18628653	9.61742918	-1.02895596	1.86708419	9.76856401	-0.65830004	-0.66225652	4.35571604	0.81947290	8.97352578	3.58409105	0.57303487	11.87024288
16	0.15000000	8.69913840	0.01453039	7.29726107	9.62238018	-0.44942171	2.64150273	9.45942717	1.99418998	2.49469248	9.76569462	-0.77873583	1.20475310	9.59587387	-1.03967818	1.83205987	9.76506708	-0.67639676	-0.66663683	4.34253982	0.77317400	8.98315601	3.56584288	0.55936140	11.83341803
17	0.16000000	8.76031579	0.03867791	7.28037241	9.61302221	-0.42226748	2.62513205	9.51399084	1.99957493	2.46955351	9.74736927	-0.76812654	1.18553346	9.62836521	-1.02028455	1.87747573	9.78093647	-0.68729823	-0.65642807	4.34152357	0.77252136	9.00160304	3.57134561	0.56290641	11.86113750
18	0.17000000	8.74496095	0.00025311	7.24737784	9.59456552	-0.42545047	2.62587847	9.53329923	2.02806183	2.49048466	9.78849420	-0.74454277	1.23253562	9.63252913	-1.01160541	1.85768648	9.77278978	-0.68425729	-0.63347976	4.33279862	0.80172514	8.98230550	3.56352490	0.55694910	11.86893877
19	0.18000000	8.72271765	0.00331461	7.23781833	9.61701259	-0.42181190	2.59555373	9.50315144	1.99147991	2.46403493	9.74633999	-0.72793394	1.22364224	9.59847577	-1.02825705	1.86149075	9.78248678	-0.66065123	-0.63925068	4.34717287	0.79256253	8.96871655	3.59580420	0.58734438	11.86353783
20	0.19000000	8.73182841	-0.01394885	7.25081573	9.60404927	-0.44554941	2.59346893	9.51727894	2.04181483	2.48339775	9.73150184	-0.72119409	1.21724004	9.60103882	-1.06220692	1.85944607	9.77278115	-0.65300715	-0.65596734	4.35033476	0.79874907	9.01588012	3.58567734	0.54568186	11.84950458
21	0.20000000	8.72277705	0.01493844	7.23338779	9.56688048	-0.44743700	2.60620005	9.48307608	2.09318078	2.52217805	9.75488032	-0.73779814	1.20690440	9.61782360	-1.05563246	1.83979589	9.77065389	-0.66625023	-0.60644125	4.33152602	0.80923204	8.96918156	3.59054041	0.55647832	11.81987470
22	0.21000000	8.71127465	0.00613389	7.25167227	9.60089625	-0.45037972	2.62029334	9.51742070	2.06944201	2.49145090	9.72388399	-0.72288028	1.22077641	9.60449364	-1.02562964	1.86954851	9.75238165	-0.65174210	-0.62042617	4.34366646	0.77987981	8.97720606	3.58148113	0.55852218	11.82334632
23	0.22000000	8.69313664	0.02779047	7.24497779	9.59049941	-0.45171493	2.61866889	9.48521621	2.03922630	2.50389006	9.73444346	-0.74894425	1.21406701	9.60954938	-1.05892819	1.87508796	9.75424357	-0.65348389	-0.61685560	4.33948295	0.79867411	8.96422885	3.57450850	0.56900464	11.82779082
24	0.23000000	8.70727752	0.02436792	7.24995778	9.57424758	-0.44674204	2.62569540	9.52980623	2.05250597	2.49383156	9.73064816	-0.74342719	1.25630542	9.59872264	-1.03925287	1.83450073	9.75520572	-0.65224913	-0.62295805	4.33039832	0.79536052	8.99217172	3.61025757	0.54564352	11.84530622
25	0.24000000	8.74823334	0.01774209	7.25954708	9.59985535	-0.42771936	2.61848460	9.48069016	2.00810777	2.50124111	9.74487147	-0.77450183	1.20055332	9.62694499	-1.04497911	1.88067180	9.76568677	-0.65015192	-0.64165685	4.34540144	0.78157111	8.98652696	3.57609962	0.54781556	11.86515665
26	0.25000000	8.72992059	0.02782391	7.21871605	9.62088733	-0.43714238	2.58513446	9.47692905	2.01539393	2.49032935	9.75257410	-0.75570534	1.16387436	9.60674522	-1.03278907	1.88486519	9.75869801	-0.65014682	-0.64783207	4.34346917	0.79421561	9.01803166	3.58763624	0.56533777	11.87113938
27	0.26000000	8.73956913	0.00664106	7.21169495	9.63251645	-0.41929983	2.59469525	9.49988345	2.04517254	2.52695419	9.74103154	-0.75733140	1.18999150	9.62494984	-1.03433852	1.83983606	9.74524513	-0.65824137	-0.68019637	4.30564026	0.79129561	8.98478863	3.58171053	0.59184785	11.83994847
28	0.27000000	8.73457124	0.04672663	7.22087224	9.59263233	-0.44700833	2.62044977	9.51355437	2.05232734	2.49901269	9.77454524	-0.74810178	1.19368424	9.58825766	-1.05069392	1.86775660	9.75865478	-0.66612672	-0.67280734	4.33165679	0.80022614	8.99580790	3.58332633	0.55383241	11.87820953
29	0.28000000	8.74564367	0.04664701	7.20119842	9.59666951	-0.42632645	2.62312340	9.51764303	2.03835290	2.47733072	9.73489614	-0.75428116	1.21243417	9.59542010	-1.01304442	1.84603754	9.74861111	-0.65286156	-0.67724200	4.32080682	0.79749908	8.99462399	3.58304715	0.56144854	11.85082714
30	0.29000000	8.74693431	0.01643288	7.20644481	9.59801971	-0.44575796	2.61494746	9.54582208	1.97575570	2.51083086	9.78186358	-0.75369030	1.19642297	9.63519247	-1.00767721	1.87686683	9.79674239	-0.66052569	-0.65999894	4.30706057	0.78890233	8.98329885	3.57770645	0.56227773	11.87843332
31	0.30000000	8.76844346	0.04705147	7.19493174	9.62995009	-0.41928665	2.62763603	9.54608925	1.98314158	2.47973784	9.75807396	-0.77280548	1.22263270	9.61399689	-0.99830853	1.88328927	9.79413523	-0.65124823	-0.65547244	4.34037675	0.79950952	8.96432730	3.57265793	0.59359209	11.83298332
32	0.31000000	8.77136773	0.04587370	7.16459911	9.64724633	-0.43453054	2.65501957	9.49061466	1.96459164	2.46129707	9.75101507	-0.76042073	1.19674361	9.63296449	-0.99134601	1.83594231	9.80382620	-0.61329616	-0.62638305	4.34985232	0.82022097	8.98289467	3.58541853	0.55669810	11.85712199
33	0.32000000	8.77722935	0.06430411	7.18515548	9.59227249	-0.44839658	2.61875943	9.51912158	1.99954365	2.52879154	9.74233427	-0.79501584	1.19996722	9.60735614	-0.98190208	1.86335719	9.78376324	-0.60072803	-0.62996485	4.35310846	0.79818969	8.96570903	3.59337844	0.55834163	11.86160175
34	0.33000000	8.74887676	0.06539902	7.19634961	9.60175431	-0.45183229	2.64147159	9.52790477	1.99242511	2.50611285	9.76651476	-0.81671816	1.20225482	9.61426944	-0.99045068	1.86614247	9.79019035	-0.58633811	-0.60858377	4.33462639	0.79628632	8.97012639	3.55062760	0.56841807	11.83683847
35	0.34000000	8.75618067	0.07755912	7.19228676	9.60099083	-0.44334985	2.61498576	9.49955075	1.96361374	2.50447238	9.75050333	-0.82375841	1.26518023	9.61713588	-1.01864463	1.87532642	9.77780992	-0.60907771	-0.63713942	4.34238923	0.80660401	9.00690796	3.59841655	0.55233986	11.86577347
36	0.35000000	8.75391515	0.11419450	7.19056995	9.61505088	-0.44914061	2.61526903	9.48401477	1.98200632	2.48526262	9.76002529	-0.81069571	1.21617770	9.60369111	-1.00014005	1.83246917	9.74694231	-0.60817477	-0.62850969	4.31986453	0.79651891	8.98965335	3.55720557	0.55573872	11.83544891
37	0.36000000	8.74021498	0.08245365	7.18167616	9.56679807	-0.46801106	2.61742993	9.50444640	1.99278226	2.46956335	9.71606692	-0.81720083	1.24001456	9.61617425	-1.00129205	1.85088165	9.76453286	-0.59414978	-0.64886840	4.33800437	0.79345631	8.96559717	3.58081039	0.57333417	11.87122856
38	0.37000000	8.75721139	0.07643870	7.15578669	9.57005338	-0.43927525	2.59609455	9.50825837	2.01137796	2.45994016	9.74022316	-0.80294869	1.18142776	9.60673463	-1.00731569	1.83046315	9.74481880	-0.63641516	-0.66019777	4.34866259	0.78555797	9.00060430	3.57552859	0.57737022	11.84049300
39	0.38000000	8.74194875	0.09203035	7.18770654	9.58779184	-0.46227076	2.56138574	9.50065730	1.98702318	2.47780642	9.73438809	-0.81048480	1.17422186	9.63143028	-1.04550641	1.83109815	9.76436079	-0.64219597	-0.64653146	4.31438777	0.79078045	9.01416005	3.57859882	0.56824495	11.88198406
40	0.39000000	8.76566216	0.07723257	7.18305781	9.58159911	-0.47968797	2.57308541	9.50829172	2.01110535	2.50266376	9.74293365	-0.80899021	1.19880459	9.58986078	-1.03012582	1.83814747	9.75199068	-0.64295863	-0.63925344	4.32337565	0.80723971	8.97182791	3.59627312	0.56602913	11.89228612
41	0.40000000	8.75819755	0.08016267	7.17783602	9.57950080	-0.46407197	2.61802619	9.51386621	1.98383797	2.52772818	9.75902317	-0.82805382	1.20869919	9.59580997	-1.03509988	1.83403370	9.76928437	-0.66952965	-0.68812501	4.33727375	0.77858971	8.95000729	3.56670103	0.56518776	11.86986703
42	0.41000000	8.73509354	0.08565227	7.16025433	9.61620089	-0.46320476	2.58570413	9.51311571	1.98858058	2.48659674	9.71465719	-0.83521203	1.23300749	9.60687279	-1.05641669	1.82907270	9.78336667	-0.69847453	-0.67773950	4.32863807	0.80801832	8.95581937	3.57769018	0.55195032	11.85368561
